<svg width="140" height="27" viewBox="0 0 140 27" fill="none" xmlns="http://www.w3.org/2000/svg">
<path d="M5.45455 26.7727C3.95455 26.7727 2.66667 26.2424 1.59091 25.1818C0.530309 24.1061 5.72205e-06 22.8182 5.72205e-06 21.3182C5.72205e-06 19.8333 0.530309 18.5606 1.59091 17.5C2.66667 16.4394 3.95455 15.9091 5.45455 15.9091C6.9091 15.9091 8.18182 16.4394 9.27273 17.5C10.3636 18.5606 10.9091 19.8333 10.9091 21.3182C10.9091 22.3182 10.6515 23.2348 10.1364 24.0682C9.63637 24.8864 8.97728 25.5455 8.1591 26.0455C7.34091 26.5303 6.4394 26.7727 5.45455 26.7727Z" fill="#FFA245"/>
<path d="M17.2699 -2.86102e-06H24.0966L31.3068 17.5909H31.6136L38.8239 -2.86102e-06H45.6506V26.1818H40.2813V9.14062H40.0639L33.2884 26.054H29.6321L22.8565 9.0767H22.6392V26.1818H17.2699V-2.86102e-06ZM58.9812 26.5653C56.9954 26.5653 55.2781 26.1435 53.8292 25.2997C52.3889 24.4474 51.2766 23.2628 50.4925 21.7457C49.7085 20.2202 49.3164 18.4517 49.3164 16.4403C49.3164 14.4119 49.7085 12.6392 50.4925 11.1222C51.2766 9.59659 52.3889 8.41193 53.8292 7.56818C55.2781 6.71591 56.9954 6.28977 58.9812 6.28977C60.967 6.28977 62.68 6.71591 64.1204 7.56818C65.5693 8.41193 66.6857 9.59659 67.4698 11.1222C68.2539 12.6392 68.646 14.4119 68.646 16.4403C68.646 18.4517 68.2539 20.2202 67.4698 21.7457C66.6857 23.2628 65.5693 24.4474 64.1204 25.2997C62.68 26.1435 60.967 26.5653 58.9812 26.5653ZM59.0068 22.3466C59.9102 22.3466 60.6644 22.0909 61.2695 21.5795C61.8747 21.0597 62.3306 20.3523 62.6374 19.4574C62.9528 18.5625 63.1104 17.544 63.1104 16.402C63.1104 15.2599 62.9528 14.2415 62.6374 13.3466C62.3306 12.4517 61.8747 11.7443 61.2695 11.2244C60.6644 10.7045 59.9102 10.4446 59.0068 10.4446C58.0948 10.4446 57.3278 10.7045 56.7056 11.2244C56.092 11.7443 55.6275 12.4517 55.3122 13.3466C55.0053 14.2415 54.8519 15.2599 54.8519 16.402C54.8519 17.544 55.0053 18.5625 55.3122 19.4574C55.6275 20.3523 56.092 21.0597 56.7056 21.5795C57.3278 22.0909 58.0948 22.3466 59.0068 22.3466ZM72.1872 26.1818V6.54545H77.467V9.97159H77.6715C78.0295 8.75284 78.6303 7.83238 79.4741 7.21023C80.3178 6.57954 81.2894 6.2642 82.3889 6.2642C82.6616 6.2642 82.9556 6.28125 83.271 6.31534C83.5863 6.34943 83.8633 6.3963 84.1019 6.45596V11.2883C83.8462 11.2116 83.4925 11.1435 83.0408 11.0838C82.5891 11.0241 82.1758 10.9943 81.8008 10.9943C80.9997 10.9943 80.2837 11.169 79.6531 11.5185C79.0309 11.8594 78.5366 12.3366 78.1701 12.9503C77.8122 13.5639 77.6332 14.2713 77.6332 15.0724V26.1818H72.1872ZM91.9546 26.5526C90.7017 26.5526 89.5852 26.3352 88.6051 25.9006C87.625 25.4574 86.8494 24.8054 86.2784 23.9446C85.7159 23.0753 85.4347 21.9929 85.4347 20.6974C85.4347 19.6065 85.6349 18.6903 86.0355 17.9489C86.4361 17.2074 86.9815 16.6108 87.6719 16.1591C88.3622 15.7074 89.1463 15.3665 90.0242 15.1364C90.9105 14.9062 91.8395 14.7443 92.8111 14.6506C93.9531 14.5312 94.8736 14.4205 95.5724 14.3182C96.2713 14.2074 96.7784 14.0455 97.0938 13.8324C97.4091 13.6193 97.5668 13.304 97.5668 12.8864V12.8097C97.5668 12 97.3111 11.3736 96.7997 10.9304C96.2969 10.4872 95.581 10.2656 94.652 10.2656C93.6719 10.2656 92.8921 10.483 92.3125 10.9176C91.733 11.3437 91.3494 11.8807 91.1619 12.5284L86.125 12.1193C86.3807 10.9261 86.8835 9.89488 87.6335 9.02557C88.3835 8.14772 89.3509 7.47443 90.5355 7.00568C91.7287 6.52841 93.1094 6.28977 94.6776 6.28977C95.7685 6.28977 96.8125 6.41761 97.8097 6.67329C98.8153 6.92897 99.706 7.32528 100.482 7.86221C101.266 8.39915 101.884 9.08949 102.335 9.93324C102.787 10.7685 103.013 11.7699 103.013 12.9375V26.1818H97.848V23.4588H97.6946C97.3793 24.0724 96.9574 24.6136 96.429 25.0824C95.9006 25.5426 95.2656 25.9048 94.5242 26.169C93.7827 26.4247 92.9261 26.5526 91.9546 26.5526ZM93.5142 22.794C94.3153 22.794 95.0227 22.6364 95.6364 22.321C96.25 21.9972 96.7315 21.5625 97.081 21.017C97.4304 20.4716 97.6051 19.8537 97.6051 19.1634V17.0795C97.4347 17.1903 97.2003 17.2926 96.902 17.3864C96.6122 17.4716 96.2841 17.5526 95.9176 17.6293C95.5511 17.6974 95.1847 17.7614 94.8182 17.821C94.4517 17.8722 94.1193 17.919 93.821 17.9616C93.1818 18.0554 92.6236 18.2045 92.1463 18.4091C91.669 18.6136 91.2983 18.8906 91.0341 19.2401C90.7699 19.581 90.6378 20.0071 90.6378 20.5185C90.6378 21.2599 90.9063 21.8267 91.4432 22.2187C91.9886 22.6023 92.679 22.794 93.5142 22.794ZM117.683 6.54545V10.6364H105.857V6.54545H117.683ZM108.542 1.84091H113.988V20.1477C113.988 20.6506 114.065 21.0426 114.218 21.3239C114.371 21.5966 114.585 21.7884 114.857 21.8991C115.139 22.0099 115.462 22.0653 115.829 22.0653C116.085 22.0653 116.34 22.044 116.596 22.0014C116.852 21.9503 117.048 21.9119 117.184 21.8864L118.04 25.9389C117.768 26.0241 117.384 26.1222 116.89 26.233C116.396 26.3523 115.795 26.4247 115.087 26.4503C113.775 26.5014 112.624 26.3267 111.636 25.9261C110.656 25.5256 109.893 24.9034 109.347 24.0597C108.802 23.2159 108.533 22.1506 108.542 20.8636V1.84091ZM129.891 26.5653C127.906 26.5653 126.188 26.1435 124.739 25.2997C123.299 24.4474 122.187 23.2628 121.403 21.7457C120.619 20.2202 120.227 18.4517 120.227 16.4403C120.227 14.4119 120.619 12.6392 121.403 11.1222C122.187 9.59659 123.299 8.41193 124.739 7.56818C126.188 6.71591 127.906 6.28977 129.891 6.28977C131.877 6.28977 133.59 6.71591 135.031 7.56818C136.479 8.41193 137.596 9.59659 138.38 11.1222C139.164 12.6392 139.556 14.4119 139.556 16.4403C139.556 18.4517 139.164 20.2202 138.38 21.7457C137.596 23.2628 136.479 24.4474 135.031 25.2997C133.59 26.1435 131.877 26.5653 129.891 26.5653ZM129.917 22.3466C130.82 22.3466 131.575 22.0909 132.18 21.5795C132.785 21.0597 133.241 20.3523 133.548 19.4574C133.863 18.5625 134.021 17.544 134.021 16.402C134.021 15.2599 133.863 14.2415 133.548 13.3466C133.241 12.4517 132.785 11.7443 132.18 11.2244C131.575 10.7045 130.82 10.4446 129.917 10.4446C129.005 10.4446 128.238 10.7045 127.616 11.2244C127.002 11.7443 126.538 12.4517 126.222 13.3466C125.915 14.2415 125.762 15.2599 125.762 16.402C125.762 17.544 125.915 18.5625 126.222 19.4574C126.538 20.3523 127.002 21.0597 127.616 21.5795C128.238 22.0909 129.005 22.3466 129.917 22.3466Z" fill="black"/>
</svg>
